#N canvas 1437 204 2560 1464 12;
#X obj 205 369 comport;
#X msg 125 316 devices;
#X obj 212 423 pdchoco/slip_parse;
#X obj 217 462 oscparse;
#X obj 214 497 list trim;
#X msg 354 346 close;
#X msg 217 286 baud 115200 \, open 7;
#X floatatom 317 619 5 0 0 0 - - - 0;
#X obj 219 550 route boutton angle;
#X obj 183 612 bng 19 250 50 0 empty empty empty 0 -10 0 12 #fcfcfc #000000 #000000;
#X connect 0 0 2 0;
#X connect 1 0 0 0;
#X connect 2 0 3 0;
#X connect 3 0 4 0;
#X connect 4 0 8 0;
#X connect 5 0 0 0;
#X connect 6 0 0 0;
#X connect 8 0 9 0;
#X connect 8 1 7 0;
#X coords 0 0 0.5 0.5 0 0 0;
