#N canvas 1437 204 670 446 12;
#X obj 205 369 comport;
#X msg 125 316 devices;
#X obj 197 562 print;
#X obj 212 423 pdchoco/slip_parse;
#X obj 217 462 oscparse;
#X obj 214 493 list trim;
#X msg 354 346 close;
#X msg 217 286 baud 115200 \, open 7;
#X connect 0 0 3 0;
#X connect 1 0 0 0;
#X connect 3 0 4 0;
#X connect 4 0 5 0;
#X connect 5 0 2 0;
#X connect 6 0 0 0;
#X connect 7 0 0 0;
#X coords 0 0 0.5 0.5 0 0 0;
